<svg id="visual" viewBox="0 0 900 600" width="900" height="600" xmlns="http://www.w3.org/2000/svg" xmlns:xlink="http://www.w3.org/1999/xlink" version="1.1"><path d="M0 37L39 37L39 55L78 55L78 49L117 49L117 37L157 37L157 43L196 43L196 49L235 49L235 49L274 49L274 49L313 49L313 49L352 49L352 43L391 43L391 55L430 55L430 55L470 55L470 37L509 37L509 37L548 37L548 37L587 37L587 43L626 43L626 43L665 43L665 37L704 37L704 55L743 55L743 55L783 55L783 37L822 37L822 55L861 55L861 55L900 55L900 37L900 0L900 0L861 0L861 0L822 0L822 0L783 0L783 0L743 0L743 0L704 0L704 0L665 0L665 0L626 0L626 0L587 0L587 0L548 0L548 0L509 0L509 0L470 0L470 0L430 0L430 0L391 0L391 0L352 0L352 0L313 0L313 0L274 0L274 0L235 0L235 0L196 0L196 0L157 0L157 0L117 0L117 0L78 0L78 0L39 0L39 0L0 0Z" fill="#ffffff"></path><path d="M0 163L39 163L39 193L78 193L78 157L117 157L117 181L157 181L157 163L196 163L196 181L235 181L235 145L274 145L274 157L313 157L313 163L352 163L352 169L391 169L391 193L430 193L430 163L470 163L470 133L509 133L509 181L548 181L548 151L587 151L587 175L626 175L626 151L665 151L665 157L704 157L704 169L743 169L743 163L783 163L783 169L822 169L822 169L861 169L861 193L900 193L900 157L900 35L900 53L861 53L861 53L822 53L822 35L783 35L783 53L743 53L743 53L704 53L704 35L665 35L665 41L626 41L626 41L587 41L587 35L548 35L548 35L509 35L509 35L470 35L470 53L430 53L430 53L391 53L391 41L352 41L352 47L313 47L313 47L274 47L274 47L235 47L235 47L196 47L196 41L157 41L157 35L117 35L117 47L78 47L78 53L39 53L39 35L0 35Z" fill="#f9f9f9"></path><path d="M0 271L39 271L39 277L78 277L78 289L117 289L117 283L157 283L157 283L196 283L196 289L235 289L235 259L274 259L274 295L313 295L313 283L352 283L352 271L391 271L391 289L430 289L430 271L470 271L470 259L509 259L509 283L548 283L548 277L587 277L587 271L626 271L626 289L665 289L665 259L704 259L704 271L743 271L743 289L783 289L783 283L822 283L822 271L861 271L861 289L900 289L900 271L900 155L900 191L861 191L861 167L822 167L822 167L783 167L783 161L743 161L743 167L704 167L704 155L665 155L665 149L626 149L626 173L587 173L587 149L548 149L548 179L509 179L509 131L470 131L470 161L430 161L430 191L391 191L391 167L352 167L352 161L313 161L313 155L274 155L274 143L235 143L235 179L196 179L196 161L157 161L157 179L117 179L117 155L78 155L78 191L39 191L39 161L0 161Z" fill="#f3f3f3"></path><path d="M0 301L39 301L39 307L78 307L78 319L117 319L117 313L157 313L157 313L196 313L196 319L235 319L235 283L274 283L274 325L313 325L313 313L352 313L352 295L391 295L391 313L430 313L430 301L470 301L470 289L509 289L509 313L548 313L548 301L587 301L587 301L626 301L626 313L665 313L665 283L704 283L704 301L743 301L743 313L783 313L783 313L822 313L822 301L861 301L861 319L900 319L900 301L900 269L900 287L861 287L861 269L822 269L822 281L783 281L783 287L743 287L743 269L704 269L704 257L665 257L665 287L626 287L626 269L587 269L587 275L548 275L548 281L509 281L509 257L470 257L470 269L430 269L430 287L391 287L391 269L352 269L352 281L313 281L313 293L274 293L274 257L235 257L235 287L196 287L196 281L157 281L157 281L117 281L117 287L78 287L78 275L39 275L39 269L0 269Z" fill="#ededed"></path><path d="M0 325L39 325L39 337L78 337L78 349L117 349L117 343L157 343L157 337L196 337L196 355L235 355L235 319L274 319L274 361L313 361L313 349L352 349L352 325L391 325L391 343L430 343L430 325L470 325L470 325L509 325L509 337L548 337L548 325L587 325L587 331L626 331L626 349L665 349L665 313L704 313L704 331L743 331L743 343L783 343L783 337L822 337L822 337L861 337L861 343L900 343L900 337L900 299L900 317L861 317L861 299L822 299L822 311L783 311L783 311L743 311L743 299L704 299L704 281L665 281L665 311L626 311L626 299L587 299L587 299L548 299L548 311L509 311L509 287L470 287L470 299L430 299L430 311L391 311L391 293L352 293L352 311L313 311L313 323L274 323L274 281L235 281L235 317L196 317L196 311L157 311L157 311L117 311L117 317L78 317L78 305L39 305L39 299L0 299Z" fill="#e8e8e8"></path><path d="M0 355L39 355L39 367L78 367L78 379L117 379L117 379L157 379L157 373L196 373L196 391L235 391L235 349L274 349L274 391L313 391L313 379L352 379L352 367L391 367L391 373L430 373L430 367L470 367L470 355L509 355L509 379L548 379L548 355L587 355L587 367L626 367L626 385L665 385L665 349L704 349L704 367L743 367L743 379L783 379L783 367L822 367L822 367L861 367L861 373L900 373L900 373L900 335L900 341L861 341L861 335L822 335L822 335L783 335L783 341L743 341L743 329L704 329L704 311L665 311L665 347L626 347L626 329L587 329L587 323L548 323L548 335L509 335L509 323L470 323L470 323L430 323L430 341L391 341L391 323L352 323L352 347L313 347L313 359L274 359L274 317L235 317L235 353L196 353L196 335L157 335L157 341L117 341L117 347L78 347L78 335L39 335L39 323L0 323Z" fill="#e2e2e2"></path><path d="M0 373L39 373L39 385L78 385L78 397L117 397L117 403L157 403L157 397L196 397L196 415L235 415L235 373L274 373L274 409L313 409L313 403L352 403L352 385L391 385L391 397L430 397L430 385L470 385L470 379L509 379L509 403L548 403L548 373L587 373L587 385L626 385L626 403L665 403L665 373L704 373L704 391L743 391L743 397L783 397L783 391L822 391L822 385L861 385L861 391L900 391L900 391L900 371L900 371L861 371L861 365L822 365L822 365L783 365L783 377L743 377L743 365L704 365L704 347L665 347L665 383L626 383L626 365L587 365L587 353L548 353L548 377L509 377L509 353L470 353L470 365L430 365L430 371L391 371L391 365L352 365L352 377L313 377L313 389L274 389L274 347L235 347L235 389L196 389L196 371L157 371L157 377L117 377L117 377L78 377L78 365L39 365L39 353L0 353Z" fill="#dcdcdc"></path><path d="M0 433L39 433L39 445L78 445L78 439L117 439L117 445L157 445L157 439L196 439L196 463L235 463L235 433L274 433L274 463L313 463L313 445L352 445L352 427L391 427L391 457L430 457L430 445L470 445L470 433L509 433L509 457L548 457L548 427L587 427L587 445L626 445L626 451L665 451L665 439L704 439L704 451L743 451L743 451L783 451L783 445L822 445L822 439L861 439L861 451L900 451L900 451L900 389L900 389L861 389L861 383L822 383L822 389L783 389L783 395L743 395L743 389L704 389L704 371L665 371L665 401L626 401L626 383L587 383L587 371L548 371L548 401L509 401L509 377L470 377L470 383L430 383L430 395L391 395L391 383L352 383L352 401L313 401L313 407L274 407L274 371L235 371L235 413L196 413L196 395L157 395L157 401L117 401L117 395L78 395L78 383L39 383L39 371L0 371Z" fill="#d6d6d6"></path><path d="M0 517L39 517L39 523L78 523L78 511L117 511L117 505L157 505L157 511L196 511L196 523L235 523L235 505L274 505L274 523L313 523L313 517L352 517L352 511L391 511L391 517L430 517L430 523L470 523L470 505L509 505L509 529L548 529L548 511L587 511L587 523L626 523L626 511L665 511L665 517L704 517L704 523L743 523L743 517L783 517L783 517L822 517L822 523L861 523L861 517L900 517L900 505L900 449L900 449L861 449L861 437L822 437L822 443L783 443L783 449L743 449L743 449L704 449L704 437L665 437L665 449L626 449L626 443L587 443L587 425L548 425L548 455L509 455L509 431L470 431L470 443L430 443L430 455L391 455L391 425L352 425L352 443L313 443L313 461L274 461L274 431L235 431L235 461L196 461L196 437L157 437L157 443L117 443L117 437L78 437L78 443L39 443L39 431L0 431Z" fill="#d0d0d0"></path><path d="M0 541L39 541L39 541L78 541L78 535L117 535L117 529L157 529L157 529L196 529L196 541L235 541L235 529L274 529L274 541L313 541L313 541L352 541L352 535L391 535L391 541L430 541L430 541L470 541L470 529L509 529L509 547L548 547L548 529L587 529L587 541L626 541L626 535L665 535L665 535L704 535L704 541L743 541L743 541L783 541L783 535L822 535L822 541L861 541L861 541L900 541L900 529L900 503L900 515L861 515L861 521L822 521L822 515L783 515L783 515L743 515L743 521L704 521L704 515L665 515L665 509L626 509L626 521L587 521L587 509L548 509L548 527L509 527L509 503L470 503L470 521L430 521L430 515L391 515L391 509L352 509L352 515L313 515L313 521L274 521L274 503L235 503L235 521L196 521L196 509L157 509L157 503L117 503L117 509L78 509L78 521L39 521L39 515L0 515Z" fill="#cbcbcb"></path><path d="M0 577L39 577L39 571L78 571L78 571L117 571L117 571L157 571L157 571L196 571L196 571L235 571L235 571L274 571L274 577L313 577L313 577L352 577L352 577L391 577L391 571L430 571L430 571L470 571L470 571L509 571L509 577L548 577L548 571L587 571L587 577L626 577L626 577L665 577L665 571L704 571L704 577L743 577L743 571L783 571L783 571L822 571L822 571L861 571L861 571L900 571L900 571L900 527L900 539L861 539L861 539L822 539L822 533L783 533L783 539L743 539L743 539L704 539L704 533L665 533L665 533L626 533L626 539L587 539L587 527L548 527L548 545L509 545L509 527L470 527L470 539L430 539L430 539L391 539L391 533L352 533L352 539L313 539L313 539L274 539L274 527L235 527L235 539L196 539L196 527L157 527L157 527L117 527L117 533L78 533L78 539L39 539L39 539L0 539Z" fill="#c5c5c5"></path><path d="M0 601L39 601L39 601L78 601L78 601L117 601L117 601L157 601L157 601L196 601L196 601L235 601L235 601L274 601L274 601L313 601L313 601L352 601L352 601L391 601L391 601L430 601L430 601L470 601L470 601L509 601L509 601L548 601L548 601L587 601L587 601L626 601L626 601L665 601L665 601L704 601L704 601L743 601L743 601L783 601L783 601L822 601L822 601L861 601L861 601L900 601L900 601L900 569L900 569L861 569L861 569L822 569L822 569L783 569L783 569L743 569L743 575L704 575L704 569L665 569L665 575L626 575L626 575L587 575L587 569L548 569L548 575L509 575L509 569L470 569L470 569L430 569L430 569L391 569L391 575L352 575L352 575L313 575L313 575L274 575L274 569L235 569L235 569L196 569L196 569L157 569L157 569L117 569L117 569L78 569L78 569L39 569L39 575L0 575Z" fill="#bfbfbf"></path></svg>