<svg width="64" height="64" viewBox="0 0 64 64" fill="none" xmlns="http://www.w3.org/2000/svg">
<path d="M27.6056 0.167687C23.7056 0.705187 20.4556 1.73019 17.1181 3.48019C14.1556 5.03019 11.7806 6.79269 9.29311 9.28019C6.60561 11.9552 4.71811 14.5927 3.10561 17.9052C1.69311 20.8052 0.780608 23.6677 0.280608 26.7802C0.0181077 28.4552 -0.0943923 33.2927 0.0931077 35.1302C0.668108 40.6052 2.70561 45.8802 5.98061 50.4177L6.71811 51.4302L6.75561 55.7927L6.79311 60.1552L7.18061 60.9802C7.85561 62.3927 8.89311 63.3177 10.3431 63.7802C10.8431 63.9427 11.2931 63.9802 12.1806 63.9427L13.3556 63.8927L16.3056 62.4302L19.2556 60.9677L20.3431 61.3927C22.7056 62.3302 25.8306 63.0677 28.6556 63.3552C30.5181 63.5427 34.8056 63.4302 36.5431 63.1677C45.2931 61.7802 53.1431 56.7677 58.0931 49.4052C60.7556 45.4302 62.3181 41.5552 63.1181 36.9052C63.4556 34.9927 63.5806 30.5052 63.3681 28.4427C62.0931 16.2427 54.0306 5.95519 42.4806 1.75519C40.9556 1.20519 38.8306 0.655187 36.9306 0.330187C34.9181 -0.019813 29.5931 -0.119813 27.6056 0.167687ZM35.9806 4.89269C43.6056 6.19269 50.0931 10.4052 54.3931 16.8177C55.2931 18.1677 56.5681 20.6552 57.1556 22.2552C59.0556 27.3552 59.3681 33.1052 58.0306 38.3677C56.7056 43.6302 53.6181 48.5677 49.4181 52.1802C44.6306 56.3052 38.9181 58.5802 32.7306 58.8052C28.7556 58.9552 25.3681 58.3427 21.4681 56.7802C19.0056 55.7802 19.2431 55.7427 15.2556 57.7177C13.4431 58.6052 11.8931 59.3427 11.7931 59.3427C11.3931 59.3427 11.3556 58.8552 11.3556 54.4052C11.3556 49.3177 11.4681 49.8677 10.0556 47.9927C7.41811 44.4677 5.73061 40.5802 4.96811 36.2427C4.63061 34.3552 4.51811 30.7802 4.71811 28.9677C5.48061 22.4052 8.38061 16.5302 13.0556 12.1052C17.3306 8.05519 22.3931 5.63019 28.3306 4.78019C29.9306 4.54269 34.3306 4.61769 35.9806 4.89269Z" fill="black"/>
<path d="M41.4055 25.8053C39.0055 27.5053 36.893 28.9428 36.7055 29.0178C36.4555 29.1053 36.243 29.1053 36.0055 29.0178C35.818 28.9428 34.0555 27.6803 32.093 26.2178C30.143 24.7428 28.3555 23.4803 28.118 23.3928C27.618 23.2178 26.918 23.3553 26.593 23.6803C26.3555 23.9303 16.068 38.5678 15.8555 38.9553C15.5555 39.5303 15.818 40.5053 16.3805 40.8928C16.7055 41.1178 17.5055 41.1553 17.868 40.9678C18.0055 40.8928 20.0305 39.3553 22.393 37.5553C26.1055 34.7178 26.7305 34.2928 27.1055 34.2928C27.4555 34.2928 28.543 34.8928 32.4805 37.2553C37.743 40.4178 37.8805 40.4678 38.7055 40.0428C39.1805 39.7928 47.8555 24.8053 47.8555 24.2303C47.8555 23.7428 47.5805 23.1678 47.2055 22.9178C47.043 22.8053 46.668 22.7178 46.343 22.7178C45.793 22.7178 45.5805 22.8428 41.4055 25.8053Z" fill="black"/>
</svg>
