<svg width="64" height="48" viewBox="0 0 64 48" fill="none" xmlns="http://www.w3.org/2000/svg">
<path d="M4.24614 0.19082C2.68364 0.60332 1.27114 1.81582 0.508643 3.36582C0.0461426 4.29082 0.0461426 4.31582 0.0461426 5.86582C0.0461426 7.36582 0.0586426 7.46582 0.446143 8.26582C0.658643 8.72832 1.10864 9.40332 1.44614 9.75332C2.24614 10.6158 28.9711 28.4658 29.9961 28.8158C30.9336 29.1408 33.0336 29.1408 33.9711 28.8158C34.9961 28.4658 61.7211 10.6158 62.5211 9.75332C62.8586 9.40332 63.3086 8.72832 63.5211 8.26582C63.8586 7.54082 63.9211 7.26582 63.9586 6.15332C64.0086 5.10332 63.9711 4.75332 63.7461 4.07832C63.0961 2.14082 61.5586 0.67832 59.6711 0.17832C59.0211 0.0158199 55.8461 -0.00918012 31.9211 0.00331988C8.69614 0.00331988 4.82114 0.0283199 4.24614 0.19082Z" fill="black"/>
<path d="M0.00871173 28.5156L0.0462117 43.6781L0.508712 44.6156C1.03371 45.6781 1.95871 46.6906 2.92121 47.2406C4.32121 48.0406 2.37121 47.9906 31.9837 47.9906C55.8337 47.9906 59.0212 47.9656 59.6712 47.8031C61.5462 47.3031 63.0962 45.8406 63.7337 43.9406C63.9837 43.1781 63.9837 42.9781 63.9587 28.2656L63.9212 13.3656L50.4212 22.3781C42.9962 27.3281 36.6087 31.5406 36.2337 31.7281C34.5712 32.5906 32.2462 32.9406 30.4212 32.6281C28.4087 32.2781 28.4212 32.2781 13.9212 22.6156C6.43371 17.6281 0.221212 13.4906 0.133712 13.4406C0.00871173 13.3656 -0.0162883 16.3031 0.00871173 28.5156Z" fill="black"/>
</svg>
