<svg width="64" height="64" viewBox="0 0 64 64" fill="none" xmlns="http://www.w3.org/2000/svg">
<path d="M8.3569 0.164232C5.39801 1.21804 1.54088 6.71493 0.510552 11.3289C-1.07457 18.6201 0.986088 25.9398 7.32658 35.3386C13.0859 43.883 19.3207 50.5191 26.1631 55.361C30.6014 58.4939 38.3157 62.111 43.4145 63.4496C46.0828 64.1332 50.9174 64.1902 53.163 63.5636C56.6503 62.5667 61.0094 59.3768 62.4096 56.785C63.3342 55.1046 63.9418 52.2565 63.9947 49.6647C64.0211 47.6425 63.9683 47.3862 63.3871 46.9305C62.119 45.8767 49.8607 39.7817 48.7247 39.6108C47.3509 39.383 47.2981 39.4399 44.6298 43.171C41.8822 46.9875 40.5877 48.3261 39.7159 48.3261C38.6063 48.3261 31.8695 44.6235 29.0956 42.4589C27.7747 41.4336 25.6876 39.5538 24.4723 38.2722C20.8001 34.3703 16.5995 28.1329 16.5995 26.5664C16.5995 26.0537 17.1015 25.1138 18.0261 23.8607C20.9058 19.9872 21.6191 18.7055 21.6191 17.4524C21.6191 15.9713 16.4674 2.47122 15.3579 1.07563C14.6181 0.13575 14.6181 0.13575 11.8442 0.0218252C10.3119 -0.0351373 8.75319 0.0218252 8.3569 0.164232Z" fill="black"/>
</svg>
