<svg id="visual" viewBox="0 0 1000 1000" width="1000" height="1000" xmlns="http://www.w3.org/2000/svg" xmlns:xlink="http://www.w3.org/1999/xlink" version="1.1"><path d="M0 610L23.8 625.2C47.7 640.3 95.3 670.7 143 691.8C190.7 713 238.3 725 286 708C333.7 691 381.3 645 428.8 644C476.3 643 523.7 687 571.2 710.5C618.7 734 666.3 737 714 733.2C761.7 729.3 809.3 718.7 857 703.3C904.7 688 952.3 668 976.2 658L1000 648L1000 1001L976.2 1001C952.3 1001 904.7 1001 857 1001C809.3 1001 761.7 1001 714 1001C666.3 1001 618.7 1001 571.2 1001C523.7 1001 476.3 1001 428.8 1001C381.3 1001 333.7 1001 286 1001C238.3 1001 190.7 1001 143 1001C95.3 1001 47.7 1001 23.8 1001L0 1001Z" fill="#05204a"></path><path d="M0 737L23.8 743.3C47.7 749.7 95.3 762.3 143 770.8C190.7 779.3 238.3 783.7 286 779.2C333.7 774.7 381.3 761.3 428.8 754C476.3 746.7 523.7 745.3 571.2 734.8C618.7 724.3 666.3 704.7 714 701.5C761.7 698.3 809.3 711.7 857 723C904.7 734.3 952.3 743.7 976.2 748.3L1000 753L1000 1001L976.2 1001C952.3 1001 904.7 1001 857 1001C809.3 1001 761.7 1001 714 1001C666.3 1001 618.7 1001 571.2 1001C523.7 1001 476.3 1001 428.8 1001C381.3 1001 333.7 1001 286 1001C238.3 1001 190.7 1001 143 1001C95.3 1001 47.7 1001 23.8 1001L0 1001Z" fill="#0c1a3a"></path><path d="M0 833L23.8 818C47.7 803 95.3 773 143 759.3C190.7 745.7 238.3 748.3 286 753.3C333.7 758.3 381.3 765.7 428.8 766C476.3 766.3 523.7 759.7 571.2 760.5C618.7 761.3 666.3 769.7 714 783.3C761.7 797 809.3 816 857 814C904.7 812 952.3 789 976.2 777.5L1000 766L1000 1001L976.2 1001C952.3 1001 904.7 1001 857 1001C809.3 1001 761.7 1001 714 1001C666.3 1001 618.7 1001 571.2 1001C523.7 1001 476.3 1001 428.8 1001C381.3 1001 333.7 1001 286 1001C238.3 1001 190.7 1001 143 1001C95.3 1001 47.7 1001 23.8 1001L0 1001Z" fill="#0e142a"></path><path d="M0 812L23.8 825.3C47.7 838.7 95.3 865.3 143 874.8C190.7 884.3 238.3 876.7 286 870.2C333.7 863.7 381.3 858.3 428.8 849.3C476.3 840.3 523.7 827.7 571.2 835.3C618.7 843 666.3 871 714 883.5C761.7 896 809.3 893 857 890C904.7 887 952.3 884 976.2 882.5L1000 881L1000 1001L976.2 1001C952.3 1001 904.7 1001 857 1001C809.3 1001 761.7 1001 714 1001C666.3 1001 618.7 1001 571.2 1001C523.7 1001 476.3 1001 428.8 1001C381.3 1001 333.7 1001 286 1001C238.3 1001 190.7 1001 143 1001C95.3 1001 47.7 1001 23.8 1001L0 1001Z" fill="#0b0c1b"></path><path d="M0 905L23.8 905C47.7 905 95.3 905 143 906.7C190.7 908.3 238.3 911.7 286 907.7C333.7 903.7 381.3 892.3 428.8 898.8C476.3 905.3 523.7 929.7 571.2 937.3C618.7 945 666.3 936 714 931.8C761.7 927.7 809.3 928.3 857 930.5C904.7 932.7 952.3 936.3 976.2 938.2L1000 940L1000 1001L976.2 1001C952.3 1001 904.7 1001 857 1001C809.3 1001 761.7 1001 714 1001C666.3 1001 618.7 1001 571.2 1001C523.7 1001 476.3 1001 428.8 1001C381.3 1001 333.7 1001 286 1001C238.3 1001 190.7 1001 143 1001C95.3 1001 47.7 1001 23.8 1001L0 1001Z" fill="#02020a"></path></svg>