<svg width="64" height="64" viewBox="0 0 64 64" fill="none" xmlns="http://www.w3.org/2000/svg">
<path d="M30.164 0.030689C23.4864 0.603385 17.9062 2.65443 12.9013 6.39693C11.3223 7.56896 8.64589 10.1527 7.34785 11.7377C3.73473 16.1594 1.3929 21.5401 0.49631 27.3869C0.215289 29.2781 0.188526 33.7798 0.442782 35.6444C0.978058 39.5733 2.1289 43.2359 3.78826 46.3924L4.44397 47.6044L2.19581 55.7819C0.951294 60.2703 -0.0389668 63.9728 0.00117889 63.9995C0.0279427 64.0261 3.82841 63.0672 8.44516 61.8552L16.8356 59.6576L18.4816 60.4434C24.9451 63.52 32.7735 64.2925 39.799 62.5477C44.2284 61.4423 48.6578 59.2581 52.204 56.4212C55.6565 53.6377 58.9886 49.429 60.8755 45.4335C63.7526 39.4002 64.6492 32.9141 63.5385 26.3214C61.2769 12.923 50.3841 2.33479 36.8282 0.350333C35.1688 0.1106 31.3951 -0.075859 30.164 0.030689ZM35.8379 5.75765C41.4851 6.53012 46.5702 9.07395 50.7186 13.1894C57.075 19.529 59.7246 28.2792 57.9315 37.0029C57.075 41.1449 55.0945 45.2337 52.3512 48.4967C48.2028 53.4512 42.6359 56.5944 36.119 57.7131C34.2455 58.0195 29.9231 58.0195 28.0898 57.7131C24.6774 57.1138 21.6665 56.0483 18.8697 54.4368L17.6787 53.7575L12.8077 55.0361C10.1179 55.7287 7.89651 56.2747 7.86974 56.2481C7.84298 56.2215 8.39164 54.0639 9.11426 51.4534L10.4123 46.712L9.72983 45.6066C6.11671 39.7198 4.9391 33.1538 6.2773 26.5212C8.16414 17.2116 15.1495 9.52678 24.2893 6.68994C28.1567 5.49128 31.7565 5.19827 35.8379 5.75765Z" fill="black"/>
<path d="M20.1785 14.3731C18.699 14.9 16.7704 17.6485 16.2553 19.9555C15.4627 23.6011 16.493 27.2609 19.6633 31.9603C22.5429 36.2325 25.6603 39.5506 29.0816 41.9715C31.3007 43.538 35.1579 45.3465 37.7073 46.0158C39.0414 46.3576 41.4587 46.3861 42.5815 46.0728C44.3251 45.5744 46.5047 43.9794 47.2048 42.6835C47.6671 41.8433 47.9709 40.4193 47.9973 39.1234C48.0106 38.1123 47.9841 37.9841 47.6935 37.7563C47.0595 37.2294 40.9303 34.1819 40.3623 34.0964C39.6755 33.9825 39.649 34.011 38.3149 35.8765C36.9411 37.7847 36.2939 38.4541 35.858 38.4541C35.3032 38.4541 31.9348 36.6028 30.5478 35.5205C29.8873 35.0078 28.8438 34.0679 28.2362 33.4271C26.4001 31.4761 24.2998 28.3574 24.2998 27.5742C24.2998 27.3179 24.5507 26.8479 25.0131 26.2213C26.4529 24.2846 26.8095 23.6438 26.8095 23.0172C26.8095 22.2767 24.2337 15.5266 23.6789 14.8288C23.3091 14.3589 23.3091 14.3589 21.9221 14.3019C21.1559 14.2734 20.3766 14.3019 20.1785 14.3731Z" fill="black"/>
</svg>
