<svg width="64" height="64" viewBox="0 0 64 64" fill="none" xmlns="http://www.w3.org/2000/svg">
<path d="M5.01353 0.193114C2.77603 0.793114 0.776027 2.80561 0.188527 5.05561C0.0260273 5.70561 0.00102728 8.86811 0.00102728 31.9931C0.00102728 60.8931 -0.0614727 58.8306 0.788527 60.4181C1.30103 61.3931 2.60103 62.6931 3.57603 63.2056C5.16353 64.0556 3.10103 63.9931 32.001 63.9931C60.901 63.9931 58.8385 64.0556 60.426 63.2056C61.401 62.6931 62.701 61.3931 63.2135 60.4181C64.0635 58.8306 64.001 60.8931 64.001 31.9931C64.001 3.09311 64.0635 5.15561 63.2135 3.56811C62.701 2.59311 61.401 1.29311 60.426 0.780614C58.8385 -0.0693857 60.9135 -0.00688572 31.9385 0.00561428C9.42603 0.00561428 5.58853 0.0306143 5.01353 0.193114ZM28.7385 17.9181C31.8135 22.3806 34.376 26.0556 34.4385 26.0681C34.5135 26.0806 37.7135 22.4181 41.5635 17.9306L48.5635 9.75561H50.351C51.3385 9.74311 52.126 9.79311 52.101 9.84311C52.0885 9.90561 48.4885 14.1056 44.126 19.1806C39.7635 24.2556 36.1885 28.4931 36.201 28.6056C36.201 28.7181 40.126 34.5056 44.9135 41.4681C49.701 48.4431 53.626 54.1681 53.626 54.1931C53.626 54.2181 50.7635 54.2431 47.2635 54.2431H40.901L35.0885 45.7681C31.8885 41.1181 29.1885 37.2056 29.0885 37.0681C28.9385 36.8556 28.3135 37.5431 21.4385 45.5431L13.951 54.2431H12.151C10.476 54.2431 10.3635 54.2306 10.5135 54.0306C10.6135 53.9181 14.3885 49.5181 18.926 44.2556C23.451 38.9931 27.176 34.6181 27.2135 34.5431C27.2385 34.4556 23.501 28.9181 18.9135 22.2306C14.3135 15.5306 10.501 9.98061 10.451 9.89311C10.376 9.76811 11.6385 9.74311 16.7635 9.76811L23.1635 9.80561L28.7385 17.9181Z" fill="black"/>
<path d="M15.376 12.581C15.3885 12.6435 21.501 21.431 28.976 32.1185L42.576 51.556L45.601 51.5935C47.2635 51.606 48.626 51.581 48.6135 51.531C48.6135 51.4685 42.4885 42.681 35.0135 31.9935L21.4135 12.556L18.401 12.5185C16.7385 12.506 15.376 12.531 15.376 12.581Z" fill="black"/>
</svg>
