<svg viewBox="0 0 800 800" fill="none" xmlns="http://www.w3.org/2000/svg">
<path d="M147.5 472.5V561.25H236.25V543.125H165V472.5H147.5Z" fill="black"/>
<path d="M604.375 561.25H693.125V472.5H675V543.125H604.375V561.25Z" fill="black"/>
<path d="M236.25 276.875H147.5V365.625H165V295H236.25V276.875Z" fill="black"/>
<path d="M697.5 365.625V276.875H608.75V295H679.375V365.625H697.5Z" fill="black"/>
<path d="M713.75 223.125V186.25H57.5V576.875H93.75V613.75H750V223.125H713.75ZM75 559.375V204.375H695.625V223.125H93.75V559.375H75ZM732.5 596.25H111.875V240.625H732.5V596.25Z" fill="black"/>
<path d="M290.091 472V378.909H326.818C333.879 378.909 339.894 380.258 344.864 382.955C349.833 385.621 353.621 389.333 356.227 394.091C358.864 398.818 360.182 404.273 360.182 410.455C360.182 416.636 358.848 422.091 356.182 426.818C353.515 431.545 349.652 435.227 344.591 437.864C339.561 440.5 333.47 441.818 326.318 441.818H302.909V426.045H323.136C326.924 426.045 330.045 425.394 332.5 424.091C334.985 422.758 336.833 420.924 338.045 418.591C339.288 416.227 339.909 413.515 339.909 410.455C339.909 407.364 339.288 404.667 338.045 402.364C336.833 400.03 334.985 398.227 332.5 396.955C330.015 395.652 326.864 395 323.045 395H309.773V472H290.091ZM372.966 472V378.909H392.648V455.773H432.557V472H372.966ZM523.455 378.909V472H506.455L465.955 413.409H465.273V472H445.591V378.909H462.864L503.045 437.455H503.864V378.909H523.455Z" fill="black"/>
</svg>
