<svg width="668" height="800" viewBox="0 0 668 800" fill="none" xmlns="http://www.w3.org/2000/svg">
<path d="M334.012 783.5C334.01 783.5 334.01 783.5 334.01 800C334.01 783.5 334.009 783.5 334.007 783.5H334.001H333.99H333.975H333.956H333.932H333.905H333.873H333.836H333.796H333.751H333.703H333.65H333.593H333.532H333.466H333.397H333.323H333.246H333.164H333.079H332.989H332.895H332.798H332.696H332.591H332.481H332.367H332.25H332.129H332.003H331.874H331.741H331.604H331.464H331.319H331.171H331.018H330.863H330.703H330.539H330.372H330.201H330.026H329.848H329.666H329.48H329.29H329.097H328.9H328.7H328.496H328.288H328.077H327.862H327.644H327.422H327.197H326.968H326.735H326.499H326.26H326.017H325.771H325.521H325.268H325.011H324.751H324.488H324.221H323.951H323.678H323.401H323.121H322.838H322.551H322.262H321.969H321.672H321.373H321.07H320.764H320.455H320.142H319.827H319.508H319.187H318.862H318.534H318.203H317.869H317.531H317.191H316.848H316.502H316.152H315.8H315.445H315.087H314.725H314.361H313.994H313.624H313.252H312.876H312.497H312.116H311.732H311.345H310.955H310.562H310.167H309.768H309.367H308.964H308.557H308.148H307.736H307.322H306.905H306.485H306.062H305.637H305.209H304.779H304.346H303.91H303.472H303.032H302.588H302.143H301.695H301.244H300.791H300.335H299.877H299.416H298.954H298.488H298.02H297.55H297.078H296.603H296.126H295.646H295.164H294.68H294.194H293.705H293.214H292.721H292.226H291.728H291.228H290.726H290.222H289.716H289.207H288.697H288.184H287.669H287.152H286.633H286.112H285.589H285.064H284.536H284.007H283.476H282.943H282.408H281.871H281.332H280.791H280.248H279.703H279.156H278.608H278.058H277.505H276.951H276.396H275.838H275.278H274.717H274.154H273.59H273.023H272.455H271.885H271.314H270.74H270.165H269.589H269.011H268.431H267.85H267.267H266.682H266.096H265.508H264.919H264.328H263.736H263.142H262.547H261.95H261.352H260.752H260.151H259.549H258.945H258.34H257.733H257.125H256.516H255.905H255.294H254.68H254.066H253.45H252.833H252.215H251.595H250.974H250.352H249.729H249.105H248.479H247.853H247.225H246.596H245.966H245.335H244.703H244.069H243.435H242.8H242.163H241.526H240.888H240.248H239.608H238.966H238.324H237.681H237.037H236.392H235.746H235.099H234.452H233.803H233.154H232.504H231.853H231.201H230.549H229.896H229.242H228.587H227.931H227.275H226.618H225.961H225.303H224.644H223.984H223.324H222.664H222.002H221.34H220.678H220.015H219.351H218.687H218.023H217.358H216.692H216.026H215.359H214.692H214.025H213.357H212.689H212.02H211.351H210.682H210.012H209.342H208.672H208.001H207.331H206.659H205.988H205.316H204.644H203.972H203.3H202.627H201.954H201.281H200.608H199.935H199.261H198.588H197.914H197.241H196.567H195.893H195.219H194.546H193.872H193.198H192.524H191.85H191.176H190.503H189.829H189.155H188.482H187.808H187.135H186.462H185.789H185.116H184.443H183.771H183.099H182.427H181.755H181.083H180.412H179.741H179.07H178.4H177.73H177.06H176.391H175.722H175.053H174.385H173.717H173.049H172.382H171.715H171.049H170.383H169.718H169.054H168.389H167.726H167.062H166.4H165.738H165.076H164.415H163.755H163.096H162.437H161.778H161.12H160.463H159.807H159.151H158.497H157.842H157.189H156.536H155.884H155.233H154.583H153.933H153.285H152.637H151.99H151.344H150.699H150.054H149.411H148.768H148.127H147.486H146.847H146.208H145.57H144.934H144.298H143.663H143.03H142.397H141.766H141.136H140.506H139.878H139.251H138.626H138.001H137.377H136.755H136.134H135.514H134.896H134.278H133.662H133.047H132.434H131.821H131.21H130.601H129.992H129.385H128.78H128.176H127.573H126.971H126.371H125.773H125.176H124.58H123.986H123.393H122.802H122.213H121.624H121.038H120.453H119.87H119.288H118.708H118.129H117.552H116.977H116.403H115.831H115.261H114.692H114.125H113.56H112.997H112.435H111.875H111.317H110.76H110.206H109.653H109.102H108.553H108.006H107.461H106.918H106.376H105.837H105.299H104.763H104.23H103.698H103.168H102.641H102.115H101.591H101.07H100.55H100.033H99.5171H99.0038H98.4926H97.9836H97.4767H96.9719H96.4693H95.9689H95.4707H94.9747H94.4809H93.9894H93.5001H93.0131H92.5284H92.0459H91.5658H91.088H90.6125H90.1394H89.6686H89.2003H88.7343H88.2707H87.8095H87.3508H86.8945H86.4407H85.9893H85.5405H85.0941H84.6503H84.209H83.7702H83.334H82.9003H82.4693H82.0408H81.615H81.1918H80.7712H80.3533H79.938H79.5254H79.1155H78.7084H78.3039H77.9022H77.5033C53.0884 783.5 33.1842 765.983 23.2913 736.669C13.433 707.458 15.3122 670.24 32.5057 639.678L32.5077 639.674C59.9024 590.95 103.645 536.894 173.358 504.409C219.589 534.61 274.765 552.238 334.008 552.238C393.221 552.238 448.395 534.608 494.623 504.409C564.338 536.894 608.081 590.949 635.493 639.677L635.493 639.678C652.687 670.24 654.567 707.458 644.709 736.669C634.816 765.983 614.912 783.5 590.499 783.5H590.1H589.698H589.293H588.886H588.476H588.064H587.648H587.231H586.81H586.387H585.961H585.532H585.101H584.668H584.232H583.793H583.351H582.908H582.461H582.012H581.561H581.107H580.651H580.192H579.731H579.267H578.801H578.333H577.862H577.389H576.914H576.436H575.956H575.473H574.989H574.502H574.012H573.521H573.027H572.531H572.033H571.533H571.03H570.525H570.018H569.509H568.998H568.485H567.969H567.452H566.932H566.411H565.887H565.361H564.834H564.304H563.772H563.239H562.703H562.165H561.626H561.084H560.541H559.996H559.449H558.9H558.349H557.796H557.242H556.685H556.127H555.567H555.006H554.442H553.877H553.31H552.742H552.171H551.599H551.026H550.451H549.874H549.295H548.715H548.133H547.55H546.965H546.378H545.79H545.2H544.609H544.017H543.423H542.827H542.23H541.631H541.031H540.43H539.827H539.223H538.618H538.011H537.402H536.793H536.182H535.57H534.956H534.341H533.725H533.108H532.489H531.869H531.248H530.626H530.003H529.378H528.752H528.125H527.497H526.868H526.238H525.606H524.974H524.34H523.706H523.07H522.434H521.796H521.157H520.518H519.877H519.236H518.593H517.95H517.306H516.66H516.014H515.367H514.72H514.071H513.421H512.771H512.12H511.468H510.816H510.162H509.508H508.853H508.198H507.541H506.884H506.227H505.568H504.909H504.25H503.59H502.929H502.267H501.605H500.943H500.28H499.616H498.952H498.287H497.622H496.956H496.29H495.623H494.956H494.289H493.621H492.953H492.284H491.615H490.946H490.276H489.606H488.936H488.265H487.594H486.923H486.251H485.579H484.907H484.235H483.563H482.89H482.217H481.545H480.871H480.198H479.525H478.851H478.178H477.504H476.831H476.157H475.483H474.809H474.135H473.461H472.788H472.114H471.44H470.766H470.093H469.419H468.746H468.073H467.399H466.726H466.053H465.381H464.708H464.036H463.364H462.692H462.02H461.349H460.677H460.007H459.336H458.666H457.996H457.326H456.657H455.988H455.319H454.651H453.983H453.316H452.649H451.983H451.317H450.651H449.986H449.322H448.658H447.994H447.331H446.669H446.007H445.346H444.685H444.025H443.365H442.707H442.048H441.391H440.734H440.078H439.423H438.768H438.114H437.461H436.809H436.157H435.506H434.856H434.207H433.558H432.911H432.264H431.618H430.973H430.329H429.686H429.044H428.403H427.762H427.123H426.485H425.847H425.211H424.576H423.942H423.308H422.676H422.045H421.415H420.786H420.159H419.532H418.907H418.282H417.659H417.037H416.417H415.797H415.179H414.562H413.946H413.332H412.718H412.106H411.496H410.887H410.279H409.672H409.067H408.463H407.861H407.26H406.66H406.062H405.466H404.87H404.277H403.684H403.094H402.505H401.917H401.331H400.746H400.163H399.582H399.002H398.424H397.848H397.273H396.7H396.128H395.558H394.99H394.424H393.859H393.296H392.735H392.176H391.618H391.062H390.508H389.956H389.406H388.857H388.311H387.766H387.223H386.682H386.143H385.606H385.071H384.538H384.007H383.478H382.951H382.426H381.903H381.382H380.863H380.346H379.831H379.318H378.808H378.299H377.793H377.289H376.787H376.287H375.789H375.294H374.801H374.31H373.821H373.335H372.851H372.369H371.89H371.413H370.938H370.465H369.995H369.528H369.062H368.599H368.139H367.681H367.225H366.772H366.321H365.873H365.428H364.984H364.544H364.106H363.67H363.237H362.807H362.379H361.954H361.532H361.112H360.695H360.28H359.868H359.459H359.053H358.649H358.248H357.85H357.455H357.062H356.672H356.285H355.901H355.52H355.141H354.765H354.393H354.023H353.656H353.292H352.931H352.572H352.217H351.865H351.516H351.169H350.826H350.486H350.149H349.815H349.484H349.156H348.831H348.509H348.191H347.875H347.563H347.254H346.948H346.645H346.346H346.049H345.756H345.466H345.18H344.897H344.617H344.34H344.067H343.797H343.53H343.267H343.007H342.75H342.497H342.247H342.001H341.758H341.519H341.283H341.051H340.822H340.596H340.375H340.156H339.941H339.73H339.523H339.319H339.118H338.921H338.728H338.539H338.353H338.171H337.992H337.818H337.647H337.479H337.316H337.156H337H336.848H336.7H336.555H336.414H336.278H336.145H336.015H335.89H335.769H335.651H335.538H335.428H335.323H335.221H335.123H335.03H334.94H334.855H334.773H334.696H334.622H334.553H334.487H334.426H334.369H334.316H334.268H334.223H334.183H334.147H334.115H334.087H334.063H334.044H334.029H334.018H334.012Z" stroke="black" stroke-width="33"/>
<path d="M527.244 259.998C527.244 366.723 440.743 453.252 334.008 453.252C227.255 453.252 140.739 366.72 140.739 260V209.753C140.739 103.031 227.254 16.5 334.008 16.5C440.743 16.5 527.244 103.029 527.244 209.752V259.998Z" stroke="black" stroke-width="33"/>
</svg>
